<svg xmlns="http://www.w3.org/2000/svg" width="1900" height="3300" viewBox="0 0 1900 3300"><style>.bg{fill:#0b1018}.tableBox{fill:#34475a;stroke:#7a7f87;stroke-width:1.4}.header{fill:#3b3d3f;stroke:#7a7f87;stroke-width:1.4}.row{fill:#34475a;stroke:#7a7f87;stroke-width:.8}.grid{stroke:#71808f;stroke-width:.8}.tableTitle{fill:#d7dee8;font:600 17px Segoe UI,Arial,sans-serif}.type{fill:#a9b4c2;font:13px Segoe UI,Arial,sans-serif}.field{fill:#d7dee8;font:14px Segoe UI,Arial,sans-serif}.key{fill:#f4c542;font:12px Segoe UI,Arial,sans-serif}.label{fill:#c9d2dd;font:11px Segoe UI,Arial,sans-serif;paint-order:stroke;stroke:#0b1018;stroke-width:4px}</style><rect width="1900" height="3300" class="bg"/><path d="M285 2140 L285 1912 L285 1912 L285 1683" fill="none" stroke="#b8c0cb" stroke-width="1.4"/><text x="285" y="1906" class="label">UserDetailId:Id</text>
<path d="M500 2318.5 L500 1256 L1335 1256 L1335 194" fill="none" stroke="#b8c0cb" stroke-width="1.4" stroke-dasharray="8 8"/><text x="918" y="1250" class="label">GroupId:Id</text>
<path d="M500 2318.5 L500 1395 L940 1395 L940 472" fill="none" stroke="#b8c0cb" stroke-width="1.4" stroke-dasharray="8 8"/><text x="720" y="1389" class="label">UniversityId:Id</text>
<path d="M285 2497 L285 2579 L575 2579 L575 2660" fill="none" stroke="#b8c0cb" stroke-width="1.4"/><text x="430" y="2573" class="label">UserId:Id</text>
<path d="M285 2497 L285 2759 L285 2759 L285 3020" fill="none" stroke="#b8c0cb" stroke-width="1.4"/><text x="285" y="2753" class="label">UserId:Id</text>
<path d="M285 2497 L285 2759 L975 2759 L975 3020" fill="none" stroke="#b8c0cb" stroke-width="1.4"/><text x="630" y="2753" class="label">UserId:Id</text>
<path d="M500 1591.5 L500 1665 L520 1665 L520 1738" fill="none" stroke="#b8c0cb" stroke-width="1.4"/><text x="510" y="1659" class="label">UserDetailId:Id</text>
<path d="M690 1336 L690 1513 L700 1513 L700 1690" fill="none" stroke="#b8c0cb" stroke-width="1.4"/><text x="695" y="1507" class="label">InterestsId:Id</text>
<path d="M940 472 L940 586 L705 586 L705 700" fill="none" stroke="#b8c0cb" stroke-width="1.4"/><text x="823" y="580" class="label">UniversityId:Id</text>
<path d="M940 472 L940 726 L1010 726 L1010 980" fill="none" stroke="#b8c0cb" stroke-width="1.4"/><text x="975" y="720" class="label">UniversityId:Id</text>
<path d="M870 762.5 L870 1003 L1260 1003 L1260 1242.5" fill="none" stroke="#b8c0cb" stroke-width="1.4"/><text x="1065" y="997" class="label">DepartmentId:Id</text>
<path d="M1335 194 L1335 447 L1315 447 L1315 700" fill="none" stroke="#b8c0cb" stroke-width="1.4"/><text x="1325" y="441" class="label">GroupId:Id</text>
<path d="M70 2318.5 L70 1402 L245 1402 L245 485" fill="none" stroke="#b8c0cb" stroke-width="1.4" stroke-dasharray="8 8"/><text x="158" y="1396" class="label">UserId:Id</text>
<path d="M1440 1305 L1440 864 L420 864 L420 422.5" fill="none" stroke="#b8c0cb" stroke-width="1.4" stroke-dasharray="8 8"/><text x="930" y="858" class="label">FieldOfStudyId:Id</text>
<path d="M1320 1606 L1320 1619 L1420 1619 L1420 1632.5" fill="none" stroke="#b8c0cb" stroke-width="1.4"/><text x="1370" y="1613" class="label">ConversationId:Id</text>
<path d="M1125 1712 L1125 1816 L1135 1816 L1135 1920" fill="none" stroke="#b8c0cb" stroke-width="1.4"/><text x="1130" y="1810" class="label">ConversationId:Id</text>
<path d="M1340 2011.5 L1340 2062 L1420 2062 L1420 2112.5" fill="none" stroke="#b8c0cb" stroke-width="1.4"/><text x="1380" y="2056" class="label">MessageId:Id</text>
<path d="M500 2318.5 L500 2007 L1625 2007 L1625 1695" fill="none" stroke="#b8c0cb" stroke-width="1.4" stroke-dasharray="8 8"/><text x="1063" y="2001" class="label">UserId:Id</text>
<path d="M500 2318.5 L500 2165 L930 2165 L930 2011.5" fill="none" stroke="#b8c0cb" stroke-width="1.4" stroke-dasharray="8 8"/><text x="715" y="2159" class="label">SenderId:Id</text>
<path d="M500 2318.5 L500 2247 L1625 2247 L1625 2175" fill="none" stroke="#b8c0cb" stroke-width="1.4" stroke-dasharray="8 8"/><text x="1063" y="2241" class="label">UserId:Id</text>
<path d="M500 2318.5 L500 1726 L250 1726 L250 1134" fill="none" stroke="#b8c0cb" stroke-width="1.4" stroke-dasharray="8 8"/><text x="375" y="1720" class="label">LikerId:Id</text>
<path d="M500 2318.5 L500 1256 L230 1256 L230 194" fill="none" stroke="#b8c0cb" stroke-width="1.4" stroke-dasharray="8 8"/><text x="365" y="1250" class="label">User1Id/User2Id:Id</text><g><rect x="80" y="40" width="300" height="154" class="tableBox"/><rect x="80" y="40" width="300" height="38" class="header"/><text x="230" y="65" text-anchor="middle" class="tableTitle">matches</text><rect x="80" y="78" width="300" height="29" class="row"/><line x1="184" y1="78" x2="184" y2="107" class="grid"/><line x1="322" y1="78" x2="322" y2="107" class="grid"/><text x="92" y="98" class="type">uuid</text><text x="200" y="98" class="field">User1Id</text><text x="350" y="98" text-anchor="middle" class="key"></text><rect x="80" y="107" width="300" height="29" class="row"/><line x1="184" y1="107" x2="184" y2="136" class="grid"/><line x1="322" y1="107" x2="322" y2="136" class="grid"/><text x="92" y="127" class="type">uuid</text><text x="200" y="127" class="field">User2Id</text><text x="350" y="127" text-anchor="middle" class="key"></text><rect x="80" y="136" width="300" height="29" class="row"/><line x1="184" y1="136" x2="184" y2="165" class="grid"/><line x1="322" y1="136" x2="322" y2="165" class="grid"/><text x="92" y="156" class="type">timestamptz</text><text x="200" y="156" class="field">CreatedAt</text><text x="350" y="156" text-anchor="middle" class="key"></text><rect x="80" y="165" width="300" height="29" class="row"/><line x1="184" y1="165" x2="184" y2="194" class="grid"/><line x1="322" y1="165" x2="322" y2="194" class="grid"/><text x="92" y="185" class="type">uuid</text><text x="200" y="185" class="field">Id</text><text x="350" y="185" text-anchor="middle" class="key">PK</text></g>
<g><rect x="1160" y="40" width="350" height="154" class="tableBox"/><rect x="1160" y="40" width="350" height="38" class="header"/><text x="1335" y="65" text-anchor="middle" class="tableTitle">groups</text><rect x="1160" y="78" width="350" height="29" class="row"/><line x1="1264" y1="78" x2="1264" y2="107" class="grid"/><line x1="1452" y1="78" x2="1452" y2="107" class="grid"/><text x="1172" y="98" class="type">varchar128</text><text x="1280" y="98" class="field">Name</text><text x="1480" y="98" text-anchor="middle" class="key"></text><rect x="1160" y="107" width="350" height="29" class="row"/><line x1="1264" y1="107" x2="1264" y2="136" class="grid"/><line x1="1452" y1="107" x2="1452" y2="136" class="grid"/><text x="1172" y="127" class="type">timestamptz</text><text x="1280" y="127" class="field">CreatedAtUtc</text><text x="1480" y="127" text-anchor="middle" class="key"></text><rect x="1160" y="136" width="350" height="29" class="row"/><line x1="1264" y1="136" x2="1264" y2="165" class="grid"/><line x1="1452" y1="136" x2="1452" y2="165" class="grid"/><text x="1172" y="156" class="type">timestamptz</text><text x="1280" y="156" class="field">UpdatedAtUtc</text><text x="1480" y="156" text-anchor="middle" class="key"></text><rect x="1160" y="165" width="350" height="29" class="row"/><line x1="1264" y1="165" x2="1264" y2="194" class="grid"/><line x1="1452" y1="165" x2="1452" y2="194" class="grid"/><text x="1172" y="185" class="type">integer</text><text x="1280" y="185" class="field">Id</text><text x="1480" y="185" text-anchor="middle" class="key">PK</text></g>
<g><rect x="760" y="260" width="360" height="212" class="tableBox"/><rect x="760" y="260" width="360" height="38" class="header"/><text x="940" y="285" text-anchor="middle" class="tableTitle">universities</text><rect x="760" y="298" width="360" height="29" class="row"/><line x1="864" y1="298" x2="864" y2="327" class="grid"/><line x1="1062" y1="298" x2="1062" y2="327" class="grid"/><text x="772" y="318" class="type">varchar128</text><text x="880" y="318" class="field">Name</text><text x="1090" y="318" text-anchor="middle" class="key"></text><rect x="760" y="327" width="360" height="29" class="row"/><line x1="864" y1="327" x2="864" y2="356" class="grid"/><line x1="1062" y1="327" x2="1062" y2="356" class="grid"/><text x="772" y="347" class="type">varchar128</text><text x="880" y="347" class="field">Country</text><text x="1090" y="347" text-anchor="middle" class="key"></text><rect x="760" y="356" width="360" height="29" class="row"/><line x1="864" y1="356" x2="864" y2="385" class="grid"/><line x1="1062" y1="356" x2="1062" y2="385" class="grid"/><text x="772" y="376" class="type">varchar128</text><text x="880" y="376" class="field">Voivodeship</text><text x="1090" y="376" text-anchor="middle" class="key"></text><rect x="760" y="385" width="360" height="29" class="row"/><line x1="864" y1="385" x2="864" y2="414" class="grid"/><line x1="1062" y1="385" x2="1062" y2="414" class="grid"/><text x="772" y="405" class="type">varchar128</text><text x="880" y="405" class="field">City</text><text x="1090" y="405" text-anchor="middle" class="key"></text><rect x="760" y="414" width="360" height="29" class="row"/><line x1="864" y1="414" x2="864" y2="443" class="grid"/><line x1="1062" y1="414" x2="1062" y2="443" class="grid"/><text x="772" y="434" class="type">varchar128</text><text x="880" y="434" class="field">Address</text><text x="1090" y="434" text-anchor="middle" class="key"></text><rect x="760" y="443" width="360" height="29" class="row"/><line x1="864" y1="443" x2="864" y2="472" class="grid"/><line x1="1062" y1="443" x2="1062" y2="472" class="grid"/><text x="772" y="463" class="type">integer</text><text x="880" y="463" class="field">Id</text><text x="1090" y="463" text-anchor="middle" class="key">PK</text></g>
<g><rect x="70" y="360" width="350" height="125" class="tableBox"/><rect x="70" y="360" width="350" height="38" class="header"/><text x="245" y="385" text-anchor="middle" class="tableTitle">user_affiliations</text><rect x="70" y="398" width="350" height="29" class="row"/><line x1="174" y1="398" x2="174" y2="427" class="grid"/><line x1="362" y1="398" x2="362" y2="427" class="grid"/><text x="82" y="418" class="type">uuid</text><text x="190" y="418" class="field">UserId</text><text x="390" y="418" text-anchor="middle" class="key"></text><rect x="70" y="427" width="350" height="29" class="row"/><line x1="174" y1="427" x2="174" y2="456" class="grid"/><line x1="362" y1="427" x2="362" y2="456" class="grid"/><text x="82" y="447" class="type">integer</text><text x="190" y="447" class="field">FieldOfStudyId</text><text x="390" y="447" text-anchor="middle" class="key"></text><rect x="70" y="456" width="350" height="29" class="row"/><line x1="174" y1="456" x2="174" y2="485" class="grid"/><line x1="362" y1="456" x2="362" y2="485" class="grid"/><text x="82" y="476" class="type">integer</text><text x="190" y="476" class="field">Id</text><text x="390" y="476" text-anchor="middle" class="key">PK</text></g>
<g><rect x="540" y="700" width="330" height="125" class="tableBox"/><rect x="540" y="700" width="330" height="38" class="header"/><text x="705" y="725" text-anchor="middle" class="tableTitle">departments</text><rect x="540" y="738" width="330" height="29" class="row"/><line x1="644" y1="738" x2="644" y2="767" class="grid"/><line x1="812" y1="738" x2="812" y2="767" class="grid"/><text x="552" y="758" class="type">varchar128</text><text x="660" y="758" class="field">Name</text><text x="840" y="758" text-anchor="middle" class="key"></text><rect x="540" y="767" width="330" height="29" class="row"/><line x1="644" y1="767" x2="644" y2="796" class="grid"/><line x1="812" y1="767" x2="812" y2="796" class="grid"/><text x="552" y="787" class="type">integer</text><text x="660" y="787" class="field">UniversityId</text><text x="840" y="787" text-anchor="middle" class="key">FK</text><rect x="540" y="796" width="330" height="29" class="row"/><line x1="644" y1="796" x2="644" y2="825" class="grid"/><line x1="812" y1="796" x2="812" y2="825" class="grid"/><text x="552" y="816" class="type">integer</text><text x="660" y="816" class="field">Id</text><text x="840" y="816" text-anchor="middle" class="key">PK</text></g>
<g><rect x="1120" y="700" width="390" height="154" class="tableBox"/><rect x="1120" y="700" width="390" height="38" class="header"/><text x="1315" y="725" text-anchor="middle" class="tableTitle">permissions</text><rect x="1120" y="738" width="390" height="29" class="row"/><line x1="1224" y1="738" x2="1224" y2="767" class="grid"/><line x1="1452" y1="738" x2="1452" y2="767" class="grid"/><text x="1132" y="758" class="type">integer</text><text x="1240" y="758" class="field">GroupId</text><text x="1480" y="758" text-anchor="middle" class="key">FK</text><rect x="1120" y="767" width="390" height="29" class="row"/><line x1="1224" y1="767" x2="1224" y2="796" class="grid"/><line x1="1452" y1="767" x2="1452" y2="796" class="grid"/><text x="1132" y="787" class="type">varchar128</text><text x="1240" y="787" class="field">PermissionName</text><text x="1480" y="787" text-anchor="middle" class="key"></text><rect x="1120" y="796" width="390" height="29" class="row"/><line x1="1224" y1="796" x2="1224" y2="825" class="grid"/><line x1="1452" y1="796" x2="1452" y2="825" class="grid"/><text x="1132" y="816" class="type">timestamptz</text><text x="1240" y="816" class="field">CreatedAtUtc</text><text x="1480" y="816" text-anchor="middle" class="key"></text><rect x="1120" y="825" width="390" height="29" class="row"/><line x1="1224" y1="825" x2="1224" y2="854" class="grid"/><line x1="1452" y1="825" x2="1452" y2="854" class="grid"/><text x="1132" y="845" class="type">integer</text><text x="1240" y="845" class="field">Id</text><text x="1480" y="845" text-anchor="middle" class="key">PK</text></g>
<g><rect x="70" y="980" width="360" height="154" class="tableBox"/><rect x="70" y="980" width="360" height="38" class="header"/><text x="250" y="1005" text-anchor="middle" class="tableTitle">likes</text><rect x="70" y="1018" width="360" height="29" class="row"/><line x1="174" y1="1018" x2="174" y2="1047" class="grid"/><line x1="372" y1="1018" x2="372" y2="1047" class="grid"/><text x="82" y="1038" class="type">uuid</text><text x="190" y="1038" class="field">LikerId</text><text x="400" y="1038" text-anchor="middle" class="key"></text><rect x="70" y="1047" width="360" height="29" class="row"/><line x1="174" y1="1047" x2="174" y2="1076" class="grid"/><line x1="372" y1="1047" x2="372" y2="1076" class="grid"/><text x="82" y="1067" class="type">uuid</text><text x="190" y="1067" class="field">LikedId</text><text x="400" y="1067" text-anchor="middle" class="key"></text><rect x="70" y="1076" width="360" height="29" class="row"/><line x1="174" y1="1076" x2="174" y2="1105" class="grid"/><line x1="372" y1="1076" x2="372" y2="1105" class="grid"/><text x="82" y="1096" class="type">timestamptz</text><text x="190" y="1096" class="field">CreatedAt</text><text x="400" y="1096" text-anchor="middle" class="key"></text><rect x="70" y="1105" width="360" height="29" class="row"/><line x1="174" y1="1105" x2="174" y2="1134" class="grid"/><line x1="372" y1="1105" x2="372" y2="1134" class="grid"/><text x="82" y="1125" class="type">uuid</text><text x="190" y="1125" class="field">Id</text><text x="400" y="1125" text-anchor="middle" class="key">PK</text></g>
<g><rect x="820" y="980" width="380" height="125" class="tableBox"/><rect x="820" y="980" width="380" height="38" class="header"/><text x="1010" y="1005" text-anchor="middle" class="tableTitle">allowed_email_domains</text><rect x="820" y="1018" width="380" height="29" class="row"/><line x1="924" y1="1018" x2="924" y2="1047" class="grid"/><line x1="1142" y1="1018" x2="1142" y2="1047" class="grid"/><text x="832" y="1038" class="type">varchar128</text><text x="940" y="1038" class="field">Domain</text><text x="1170" y="1038" text-anchor="middle" class="key"></text><rect x="820" y="1047" width="380" height="29" class="row"/><line x1="924" y1="1047" x2="924" y2="1076" class="grid"/><line x1="1142" y1="1047" x2="1142" y2="1076" class="grid"/><text x="832" y="1067" class="type">integer</text><text x="940" y="1067" class="field">UniversityId</text><text x="1170" y="1067" text-anchor="middle" class="key">FK</text><rect x="820" y="1076" width="380" height="29" class="row"/><line x1="924" y1="1076" x2="924" y2="1105" class="grid"/><line x1="1142" y1="1076" x2="1142" y2="1105" class="grid"/><text x="832" y="1096" class="type">integer</text><text x="940" y="1096" class="field">Id</text><text x="1170" y="1096" text-anchor="middle" class="key">PK</text></g>
<g><rect x="1260" y="1180" width="360" height="125" class="tableBox"/><rect x="1260" y="1180" width="360" height="38" class="header"/><text x="1440" y="1205" text-anchor="middle" class="tableTitle">fields_of_study</text><rect x="1260" y="1218" width="360" height="29" class="row"/><line x1="1364" y1="1218" x2="1364" y2="1247" class="grid"/><line x1="1562" y1="1218" x2="1562" y2="1247" class="grid"/><text x="1272" y="1238" class="type">varchar128</text><text x="1380" y="1238" class="field">Name</text><text x="1590" y="1238" text-anchor="middle" class="key"></text><rect x="1260" y="1247" width="360" height="29" class="row"/><line x1="1364" y1="1247" x2="1364" y2="1276" class="grid"/><line x1="1562" y1="1247" x2="1562" y2="1276" class="grid"/><text x="1272" y="1267" class="type">integer</text><text x="1380" y="1267" class="field">DepartmentId</text><text x="1590" y="1267" text-anchor="middle" class="key">FK</text><rect x="1260" y="1276" width="360" height="29" class="row"/><line x1="1364" y1="1276" x2="1364" y2="1305" class="grid"/><line x1="1562" y1="1276" x2="1562" y2="1305" class="grid"/><text x="1272" y="1296" class="type">integer</text><text x="1380" y="1296" class="field">Id</text><text x="1590" y="1296" text-anchor="middle" class="key">PK</text></g>
<g><rect x="540" y="1240" width="300" height="96" class="tableBox"/><rect x="540" y="1240" width="300" height="38" class="header"/><text x="690" y="1265" text-anchor="middle" class="tableTitle">interests</text><rect x="540" y="1278" width="300" height="29" class="row"/><line x1="644" y1="1278" x2="644" y2="1307" class="grid"/><line x1="782" y1="1278" x2="782" y2="1307" class="grid"/><text x="552" y="1298" class="type">varchar128</text><text x="660" y="1298" class="field">Name</text><text x="810" y="1298" text-anchor="middle" class="key"></text><rect x="540" y="1307" width="300" height="29" class="row"/><line x1="644" y1="1307" x2="644" y2="1336" class="grid"/><line x1="782" y1="1307" x2="782" y2="1336" class="grid"/><text x="552" y="1327" class="type">integer</text><text x="660" y="1327" class="field">Id</text><text x="810" y="1327" text-anchor="middle" class="key">PK</text></g>
<g><rect x="70" y="1500" width="430" height="183" class="tableBox"/><rect x="70" y="1500" width="430" height="38" class="header"/><text x="285" y="1525" text-anchor="middle" class="tableTitle">user_details</text><rect x="70" y="1538" width="430" height="29" class="row"/><line x1="174" y1="1538" x2="174" y2="1567" class="grid"/><line x1="442" y1="1538" x2="442" y2="1567" class="grid"/><text x="82" y="1558" class="type">uuid</text><text x="190" y="1558" class="field">UserId</text><text x="470" y="1558" text-anchor="middle" class="key"></text><rect x="70" y="1567" width="430" height="29" class="row"/><line x1="174" y1="1567" x2="174" y2="1596" class="grid"/><line x1="442" y1="1567" x2="442" y2="1596" class="grid"/><text x="82" y="1587" class="type">varchar10</text><text x="190" y="1587" class="field">Sex</text><text x="470" y="1587" text-anchor="middle" class="key"></text><rect x="70" y="1596" width="430" height="29" class="row"/><line x1="174" y1="1596" x2="174" y2="1625" class="grid"/><line x1="442" y1="1596" x2="442" y2="1625" class="grid"/><text x="82" y="1616" class="type">varchar500</text><text x="190" y="1616" class="field">ProfilePicturePath</text><text x="470" y="1616" text-anchor="middle" class="key"></text><rect x="70" y="1625" width="430" height="29" class="row"/><line x1="174" y1="1625" x2="174" y2="1654" class="grid"/><line x1="442" y1="1625" x2="442" y2="1654" class="grid"/><text x="82" y="1645" class="type">varchar50</text><text x="190" y="1645" class="field">ProfilePictureMimeType</text><text x="470" y="1645" text-anchor="middle" class="key"></text><rect x="70" y="1654" width="430" height="29" class="row"/><line x1="174" y1="1654" x2="174" y2="1683" class="grid"/><line x1="442" y1="1654" x2="442" y2="1683" class="grid"/><text x="82" y="1674" class="type">integer</text><text x="190" y="1674" class="field">Id</text><text x="470" y="1674" text-anchor="middle" class="key">PK</text></g>
<g><rect x="520" y="1690" width="360" height="96" class="tableBox"/><rect x="520" y="1690" width="360" height="38" class="header"/><text x="700" y="1715" text-anchor="middle" class="tableTitle">InterestUserDetail</text><rect x="520" y="1728" width="360" height="29" class="row"/><line x1="624" y1="1728" x2="624" y2="1757" class="grid"/><line x1="822" y1="1728" x2="822" y2="1757" class="grid"/><text x="532" y="1748" class="type">integer</text><text x="640" y="1748" class="field">InterestsId</text><text x="850" y="1748" text-anchor="middle" class="key">PK,FK</text><rect x="520" y="1757" width="360" height="29" class="row"/><line x1="624" y1="1757" x2="624" y2="1786" class="grid"/><line x1="822" y1="1757" x2="822" y2="1786" class="grid"/><text x="532" y="1777" class="type">integer</text><text x="640" y="1777" class="field">UserDetailId</text><text x="850" y="1777" text-anchor="middle" class="key">PK,FK</text></g>
<g><rect x="930" y="1500" width="390" height="212" class="tableBox"/><rect x="930" y="1500" width="390" height="38" class="header"/><text x="1125" y="1525" text-anchor="middle" class="tableTitle">conversations</text><rect x="930" y="1538" width="390" height="29" class="row"/><line x1="1034" y1="1538" x2="1034" y2="1567" class="grid"/><line x1="1262" y1="1538" x2="1262" y2="1567" class="grid"/><text x="942" y="1558" class="type">boolean</text><text x="1050" y="1558" class="field">IsGroup</text><text x="1290" y="1558" text-anchor="middle" class="key"></text><rect x="930" y="1567" width="390" height="29" class="row"/><line x1="1034" y1="1567" x2="1034" y2="1596" class="grid"/><line x1="1262" y1="1567" x2="1262" y2="1596" class="grid"/><text x="942" y="1587" class="type">uuid</text><text x="1050" y="1587" class="field">CreatedByUserId</text><text x="1290" y="1587" text-anchor="middle" class="key"></text><rect x="930" y="1596" width="390" height="29" class="row"/><line x1="1034" y1="1596" x2="1034" y2="1625" class="grid"/><line x1="1262" y1="1596" x2="1262" y2="1625" class="grid"/><text x="942" y="1616" class="type">uuid</text><text x="1050" y="1616" class="field">User1Id</text><text x="1290" y="1616" text-anchor="middle" class="key"></text><rect x="930" y="1625" width="390" height="29" class="row"/><line x1="1034" y1="1625" x2="1034" y2="1654" class="grid"/><line x1="1262" y1="1625" x2="1262" y2="1654" class="grid"/><text x="942" y="1645" class="type">uuid</text><text x="1050" y="1645" class="field">User2Id</text><text x="1290" y="1645" text-anchor="middle" class="key"></text><rect x="930" y="1654" width="390" height="29" class="row"/><line x1="1034" y1="1654" x2="1034" y2="1683" class="grid"/><line x1="1262" y1="1654" x2="1262" y2="1683" class="grid"/><text x="942" y="1674" class="type">timestamptz</text><text x="1050" y="1674" class="field">CreatedAt</text><text x="1290" y="1674" text-anchor="middle" class="key"></text><rect x="930" y="1683" width="390" height="29" class="row"/><line x1="1034" y1="1683" x2="1034" y2="1712" class="grid"/><line x1="1262" y1="1683" x2="1262" y2="1712" class="grid"/><text x="942" y="1703" class="type">uuid</text><text x="1050" y="1703" class="field">Id</text><text x="1290" y="1703" text-anchor="middle" class="key">PK</text></g>
<g><rect x="1420" y="1570" width="410" height="125" class="tableBox"/><rect x="1420" y="1570" width="410" height="38" class="header"/><text x="1625" y="1595" text-anchor="middle" class="tableTitle">conversation_participants</text><rect x="1420" y="1608" width="410" height="29" class="row"/><line x1="1524" y1="1608" x2="1524" y2="1637" class="grid"/><line x1="1772" y1="1608" x2="1772" y2="1637" class="grid"/><text x="1432" y="1628" class="type">uuid</text><text x="1540" y="1628" class="field">ConversationId</text><text x="1800" y="1628" text-anchor="middle" class="key">PK,FK</text><rect x="1420" y="1637" width="410" height="29" class="row"/><line x1="1524" y1="1637" x2="1524" y2="1666" class="grid"/><line x1="1772" y1="1637" x2="1772" y2="1666" class="grid"/><text x="1432" y="1657" class="type">uuid</text><text x="1540" y="1657" class="field">UserId</text><text x="1800" y="1657" text-anchor="middle" class="key">PK</text><rect x="1420" y="1666" width="410" height="29" class="row"/><line x1="1524" y1="1666" x2="1524" y2="1695" class="grid"/><line x1="1772" y1="1666" x2="1772" y2="1695" class="grid"/><text x="1432" y="1686" class="type">timestamptz</text><text x="1540" y="1686" class="field">JoinedAt</text><text x="1800" y="1686" text-anchor="middle" class="key"></text></g>
<g><rect x="930" y="1920" width="410" height="183" class="tableBox"/><rect x="930" y="1920" width="410" height="38" class="header"/><text x="1135" y="1945" text-anchor="middle" class="tableTitle">messages</text><rect x="930" y="1958" width="410" height="29" class="row"/><line x1="1034" y1="1958" x2="1034" y2="1987" class="grid"/><line x1="1282" y1="1958" x2="1282" y2="1987" class="grid"/><text x="942" y="1978" class="type">uuid</text><text x="1050" y="1978" class="field">ConversationId</text><text x="1310" y="1978" text-anchor="middle" class="key">FK</text><rect x="930" y="1987" width="410" height="29" class="row"/><line x1="1034" y1="1987" x2="1034" y2="2016" class="grid"/><line x1="1282" y1="1987" x2="1282" y2="2016" class="grid"/><text x="942" y="2007" class="type">uuid</text><text x="1050" y="2007" class="field">SenderId</text><text x="1310" y="2007" text-anchor="middle" class="key"></text><rect x="930" y="2016" width="410" height="29" class="row"/><line x1="1034" y1="2016" x2="1034" y2="2045" class="grid"/><line x1="1282" y1="2016" x2="1282" y2="2045" class="grid"/><text x="942" y="2036" class="type">varchar4000</text><text x="1050" y="2036" class="field">Content</text><text x="1310" y="2036" text-anchor="middle" class="key"></text><rect x="930" y="2045" width="410" height="29" class="row"/><line x1="1034" y1="2045" x2="1034" y2="2074" class="grid"/><line x1="1282" y1="2045" x2="1282" y2="2074" class="grid"/><text x="942" y="2065" class="type">timestamptz</text><text x="1050" y="2065" class="field">SentAt</text><text x="1310" y="2065" text-anchor="middle" class="key"></text><rect x="930" y="2074" width="410" height="29" class="row"/><line x1="1034" y1="2074" x2="1034" y2="2103" class="grid"/><line x1="1282" y1="2074" x2="1282" y2="2103" class="grid"/><text x="942" y="2094" class="type">uuid</text><text x="1050" y="2094" class="field">Id</text><text x="1310" y="2094" text-anchor="middle" class="key">PK</text></g>
<g><rect x="1420" y="2050" width="410" height="125" class="tableBox"/><rect x="1420" y="2050" width="410" height="38" class="header"/><text x="1625" y="2075" text-anchor="middle" class="tableTitle">message_read_receipts</text><rect x="1420" y="2088" width="410" height="29" class="row"/><line x1="1524" y1="2088" x2="1524" y2="2117" class="grid"/><line x1="1772" y1="2088" x2="1772" y2="2117" class="grid"/><text x="1432" y="2108" class="type">uuid</text><text x="1540" y="2108" class="field">MessageId</text><text x="1800" y="2108" text-anchor="middle" class="key">PK,FK</text><rect x="1420" y="2117" width="410" height="29" class="row"/><line x1="1524" y1="2117" x2="1524" y2="2146" class="grid"/><line x1="1772" y1="2117" x2="1772" y2="2146" class="grid"/><text x="1432" y="2137" class="type">uuid</text><text x="1540" y="2137" class="field">UserId</text><text x="1800" y="2137" text-anchor="middle" class="key">PK</text><rect x="1420" y="2146" width="410" height="29" class="row"/><line x1="1524" y1="2146" x2="1524" y2="2175" class="grid"/><line x1="1772" y1="2146" x2="1772" y2="2175" class="grid"/><text x="1432" y="2166" class="type">timestamptz</text><text x="1540" y="2166" class="field">ReadAt</text><text x="1800" y="2166" text-anchor="middle" class="key"></text></g>
<g><rect x="70" y="2140" width="430" height="357" class="tableBox"/><rect x="70" y="2140" width="430" height="38" class="header"/><text x="285" y="2165" text-anchor="middle" class="tableTitle">users</text><rect x="70" y="2178" width="430" height="29" class="row"/><line x1="174" y1="2178" x2="174" y2="2207" class="grid"/><line x1="442" y1="2178" x2="442" y2="2207" class="grid"/><text x="82" y="2198" class="type">varchar64</text><text x="190" y="2198" class="field">FirstName</text><text x="470" y="2198" text-anchor="middle" class="key"></text><rect x="70" y="2207" width="430" height="29" class="row"/><line x1="174" y1="2207" x2="174" y2="2236" class="grid"/><line x1="442" y1="2207" x2="442" y2="2236" class="grid"/><text x="82" y="2227" class="type">varchar64</text><text x="190" y="2227" class="field">LastName</text><text x="470" y="2227" text-anchor="middle" class="key"></text><rect x="70" y="2236" width="430" height="29" class="row"/><line x1="174" y1="2236" x2="174" y2="2265" class="grid"/><line x1="442" y1="2236" x2="442" y2="2265" class="grid"/><text x="82" y="2256" class="type">text</text><text x="190" y="2256" class="field">Email</text><text x="470" y="2256" text-anchor="middle" class="key"></text><rect x="70" y="2265" width="430" height="29" class="row"/><line x1="174" y1="2265" x2="174" y2="2294" class="grid"/><line x1="442" y1="2265" x2="442" y2="2294" class="grid"/><text x="82" y="2285" class="type">text</text><text x="190" y="2285" class="field">PasswordHash</text><text x="470" y="2285" text-anchor="middle" class="key"></text><rect x="70" y="2294" width="430" height="29" class="row"/><line x1="174" y1="2294" x2="174" y2="2323" class="grid"/><line x1="442" y1="2294" x2="442" y2="2323" class="grid"/><text x="82" y="2314" class="type">timestamptz</text><text x="190" y="2314" class="field">CreatedAt</text><text x="470" y="2314" text-anchor="middle" class="key"></text><rect x="70" y="2323" width="430" height="29" class="row"/><line x1="174" y1="2323" x2="174" y2="2352" class="grid"/><line x1="442" y1="2323" x2="442" y2="2352" class="grid"/><text x="82" y="2343" class="type">timestamptz</text><text x="190" y="2343" class="field">UpdatedAt</text><text x="470" y="2343" text-anchor="middle" class="key"></text><rect x="70" y="2352" width="430" height="29" class="row"/><line x1="174" y1="2352" x2="174" y2="2381" class="grid"/><line x1="442" y1="2352" x2="442" y2="2381" class="grid"/><text x="82" y="2372" class="type">boolean</text><text x="190" y="2372" class="field">IsActive</text><text x="470" y="2372" text-anchor="middle" class="key"></text><rect x="70" y="2381" width="430" height="29" class="row"/><line x1="174" y1="2381" x2="174" y2="2410" class="grid"/><line x1="442" y1="2381" x2="442" y2="2410" class="grid"/><text x="82" y="2401" class="type">integer</text><text x="190" y="2401" class="field">GroupId</text><text x="470" y="2401" text-anchor="middle" class="key"></text><rect x="70" y="2410" width="430" height="29" class="row"/><line x1="174" y1="2410" x2="174" y2="2439" class="grid"/><line x1="442" y1="2410" x2="442" y2="2439" class="grid"/><text x="82" y="2430" class="type">integer</text><text x="190" y="2430" class="field">UserDetailId</text><text x="470" y="2430" text-anchor="middle" class="key">FK</text><rect x="70" y="2439" width="430" height="29" class="row"/><line x1="174" y1="2439" x2="174" y2="2468" class="grid"/><line x1="442" y1="2439" x2="442" y2="2468" class="grid"/><text x="82" y="2459" class="type">integer</text><text x="190" y="2459" class="field">UniversityId</text><text x="470" y="2459" text-anchor="middle" class="key"></text><rect x="70" y="2468" width="430" height="29" class="row"/><line x1="174" y1="2468" x2="174" y2="2497" class="grid"/><line x1="442" y1="2468" x2="442" y2="2497" class="grid"/><text x="82" y="2488" class="type">uuid</text><text x="190" y="2488" class="field">Id</text><text x="470" y="2488" text-anchor="middle" class="key">PK</text></g>
<g><rect x="690" y="2270" width="380" height="96" class="tableBox"/><rect x="690" y="2270" width="380" height="38" class="header"/><text x="880" y="2295" text-anchor="middle" class="tableTitle">__EFMigrationsHistory</text><rect x="690" y="2308" width="380" height="29" class="row"/><line x1="794" y1="2308" x2="794" y2="2337" class="grid"/><line x1="1012" y1="2308" x2="1012" y2="2337" class="grid"/><text x="702" y="2328" class="type">varchar32</text><text x="810" y="2328" class="field">ProductVersion</text><text x="1040" y="2328" text-anchor="middle" class="key"></text><rect x="690" y="2337" width="380" height="29" class="row"/><line x1="794" y1="2337" x2="794" y2="2366" class="grid"/><line x1="1012" y1="2337" x2="1012" y2="2366" class="grid"/><text x="702" y="2357" class="type">varchar150</text><text x="810" y="2357" class="field">MigrationId</text><text x="1040" y="2357" text-anchor="middle" class="key">PK</text></g>
<g><rect x="360" y="2660" width="430" height="183" class="tableBox"/><rect x="360" y="2660" width="430" height="38" class="header"/><text x="575" y="2685" text-anchor="middle" class="tableTitle">confirmation_codes</text><rect x="360" y="2698" width="430" height="29" class="row"/><line x1="464" y1="2698" x2="464" y2="2727" class="grid"/><line x1="732" y1="2698" x2="732" y2="2727" class="grid"/><text x="372" y="2718" class="type">uuid</text><text x="480" y="2718" class="field">Code</text><text x="760" y="2718" text-anchor="middle" class="key"></text><rect x="360" y="2727" width="430" height="29" class="row"/><line x1="464" y1="2727" x2="464" y2="2756" class="grid"/><line x1="732" y1="2727" x2="732" y2="2756" class="grid"/><text x="372" y="2747" class="type">timestamptz</text><text x="480" y="2747" class="field">CreatedAtUtc</text><text x="760" y="2747" text-anchor="middle" class="key"></text><rect x="360" y="2756" width="430" height="29" class="row"/><line x1="464" y1="2756" x2="464" y2="2785" class="grid"/><line x1="732" y1="2756" x2="732" y2="2785" class="grid"/><text x="372" y="2776" class="type">timestamptz</text><text x="480" y="2776" class="field">ExpiresAtUtc</text><text x="760" y="2776" text-anchor="middle" class="key"></text><rect x="360" y="2785" width="430" height="29" class="row"/><line x1="464" y1="2785" x2="464" y2="2814" class="grid"/><line x1="732" y1="2785" x2="732" y2="2814" class="grid"/><text x="372" y="2805" class="type">uuid</text><text x="480" y="2805" class="field">UserId</text><text x="760" y="2805" text-anchor="middle" class="key">FK</text><rect x="360" y="2814" width="430" height="29" class="row"/><line x1="464" y1="2814" x2="464" y2="2843" class="grid"/><line x1="732" y1="2814" x2="732" y2="2843" class="grid"/><text x="372" y="2834" class="type">integer</text><text x="480" y="2834" class="field">Id</text><text x="760" y="2834" text-anchor="middle" class="key">PK</text></g>
<g><rect x="70" y="3020" width="430" height="183" class="tableBox"/><rect x="70" y="3020" width="430" height="38" class="header"/><text x="285" y="3045" text-anchor="middle" class="tableTitle">refresh_tokens</text><rect x="70" y="3058" width="430" height="29" class="row"/><line x1="174" y1="3058" x2="174" y2="3087" class="grid"/><line x1="442" y1="3058" x2="442" y2="3087" class="grid"/><text x="82" y="3078" class="type">text</text><text x="190" y="3078" class="field">Token</text><text x="470" y="3078" text-anchor="middle" class="key"></text><rect x="70" y="3087" width="430" height="29" class="row"/><line x1="174" y1="3087" x2="174" y2="3116" class="grid"/><line x1="442" y1="3087" x2="442" y2="3116" class="grid"/><text x="82" y="3107" class="type">timestamptz</text><text x="190" y="3107" class="field">CreatedAtUtc</text><text x="470" y="3107" text-anchor="middle" class="key"></text><rect x="70" y="3116" width="430" height="29" class="row"/><line x1="174" y1="3116" x2="174" y2="3145" class="grid"/><line x1="442" y1="3116" x2="442" y2="3145" class="grid"/><text x="82" y="3136" class="type">timestamptz</text><text x="190" y="3136" class="field">ExpiresAtUtc</text><text x="470" y="3136" text-anchor="middle" class="key"></text><rect x="70" y="3145" width="430" height="29" class="row"/><line x1="174" y1="3145" x2="174" y2="3174" class="grid"/><line x1="442" y1="3145" x2="442" y2="3174" class="grid"/><text x="82" y="3165" class="type">uuid</text><text x="190" y="3165" class="field">UserId</text><text x="470" y="3165" text-anchor="middle" class="key">FK</text><rect x="70" y="3174" width="430" height="29" class="row"/><line x1="174" y1="3174" x2="174" y2="3203" class="grid"/><line x1="442" y1="3174" x2="442" y2="3203" class="grid"/><text x="82" y="3194" class="type">uuid</text><text x="190" y="3194" class="field">Id</text><text x="470" y="3194" text-anchor="middle" class="key">PK</text></g>
<g><rect x="760" y="3020" width="430" height="183" class="tableBox"/><rect x="760" y="3020" width="430" height="38" class="header"/><text x="975" y="3045" text-anchor="middle" class="tableTitle">password_reset_codes</text><rect x="760" y="3058" width="430" height="29" class="row"/><line x1="864" y1="3058" x2="864" y2="3087" class="grid"/><line x1="1132" y1="3058" x2="1132" y2="3087" class="grid"/><text x="772" y="3078" class="type">uuid</text><text x="880" y="3078" class="field">Code</text><text x="1160" y="3078" text-anchor="middle" class="key"></text><rect x="760" y="3087" width="430" height="29" class="row"/><line x1="864" y1="3087" x2="864" y2="3116" class="grid"/><line x1="1132" y1="3087" x2="1132" y2="3116" class="grid"/><text x="772" y="3107" class="type">timestamptz</text><text x="880" y="3107" class="field">CreatedAtUtc</text><text x="1160" y="3107" text-anchor="middle" class="key"></text><rect x="760" y="3116" width="430" height="29" class="row"/><line x1="864" y1="3116" x2="864" y2="3145" class="grid"/><line x1="1132" y1="3116" x2="1132" y2="3145" class="grid"/><text x="772" y="3136" class="type">timestamptz</text><text x="880" y="3136" class="field">ExpiresAtUtc</text><text x="1160" y="3136" text-anchor="middle" class="key"></text><rect x="760" y="3145" width="430" height="29" class="row"/><line x1="864" y1="3145" x2="864" y2="3174" class="grid"/><line x1="1132" y1="3145" x2="1132" y2="3174" class="grid"/><text x="772" y="3165" class="type">uuid</text><text x="880" y="3165" class="field">UserId</text><text x="1160" y="3165" text-anchor="middle" class="key">FK</text><rect x="760" y="3174" width="430" height="29" class="row"/><line x1="864" y1="3174" x2="864" y2="3203" class="grid"/><line x1="1132" y1="3174" x2="1132" y2="3203" class="grid"/><text x="772" y="3194" class="type">integer</text><text x="880" y="3194" class="field">Id</text><text x="1160" y="3194" text-anchor="middle" class="key">PK</text></g></svg>